/vscmnt/brussel_pixiu_data/_data_brussel/112/vsc11236/PredSimResults/SUBJ04mtu3D/worker8.mot
version=1
nRows=4
nColumns=50
inDegrees=yes
endheader
                time	         pelvis_tilt	         pelvis_list	     pelvis_rotation	           pelvis_tx	           pelvis_ty	           pelvis_tz	       hip_flexion_r	     hip_adduction_r	      hip_rotation_r	        knee_angle_r	       ankle_angle_r	         mtp_angle_r	       hip_flexion_l	     hip_adduction_l	      hip_rotation_l	        knee_angle_l	       ankle_angle_l	         mtp_angle_l	    lumbar_extension	      lumbar_bending	     lumbar_rotation	 ercspn_r/activation	 intobl_r/activation	 extobl_r/activation	    abd_r/activation	    add_r/activation	hamstrings_r/activation	bifemsh_r/activation	glut_max_r/activation	iliopsoas_r/activation	rect_fem_r/activation	  vasti_r/activation	gastroc_r/activation	 soleus_r/activation	tib_ant_r/activation	 ercspn_l/activation	 intobl_l/activation	 extobl_l/activation	    abd_l/activation	    add_l/activation	hamstrings_l/activation	bifemsh_l/activation	glut_max_l/activation	iliopsoas_l/activation	rect_fem_l/activation	  vasti_l/activation	gastroc_l/activation	 soleus_l/activation	tib_ant_l/activation	
          0.00000000	         -2.46149298	          2.48436282	          4.05941845	          0.00000000	          0.87935252	         -0.00495009	         30.77406569	         -3.88798802	         -3.41937172	        -12.38397064	          5.25755250	          0.22992496	        -12.04803683	          1.88634734	         -6.99023214	         -7.76986552	         13.23773493	         19.73102626	        -14.01089831	         -6.54342508	         -2.38325927	          0.02163642	          0.10383803	          0.04184285	          0.02758956	          0.20415348	          0.06022810	          0.12283759	          0.05511114	          0.05736281	          0.01783633	          0.00999999	          0.02251726	          0.01860202	          0.35347613	          0.01000000	          0.00999999	          0.00999999	          0.04733578	          0.01000005	          0.05708329	          0.17916808	          0.01680319	          0.01000000	          0.00999999	          0.00999999	          0.25998185	          0.23916807	          0.01000002	
          0.01277216	         -2.51300718	          2.35392483	          3.96840901	          0.01535013	          0.87754361	         -0.00481237	         30.34934409	         -3.67221901	         -3.42855938	        -13.33927400	          4.95561064	          0.22625201	        -12.64574403	          1.66665628	         -7.43795785	         -8.49437737	         12.99767300	         21.18795635	        -13.55934248	         -5.73069591	         -2.48857496	          0.01783905	          0.08561355	          0.03449906	          0.04594156	          0.18505493	          0.06319194	          0.10127852	          0.10111835	          0.04729513	          0.01470590	          0.00999999	          0.01856528	          0.01533720	          0.39074943	          0.01000004	          0.00999999	          0.00999999	          0.03902793	          0.01000001	          0.04706468	          0.14772251	          0.01385408	          0.01228470	          0.01000000	          0.00999999	          0.21909389	          0.23373566	          0.00999999	
          0.02554431	         -2.55609247	          2.19981986	          3.84484453	          0.03088457	          0.87600782	         -0.00459228	         29.90944772	         -3.45501291	         -3.48732601	        -14.20864550	          4.43673962	          0.21605405	        -13.12091201	          1.40453232	         -7.91182464	         -9.47384077	         12.66118601	         22.68775436	        -13.09379503	         -4.87635067	         -2.58381387	          0.02918880	          0.07058762	          0.02844417	          0.07655552	          0.19931069	          0.06226291	          0.08350325	          0.09953278	          0.03899442	          0.01212488	          0.03990025	          0.01530691	          0.01264539	          0.41852155	          0.02261194	          0.00999999	          0.00999999	          0.03217819	          0.01000000	          0.03880443	          0.12179591	          0.01142257	          0.01012866	          0.01000000	          0.00999999	          0.18064098	          0.22373131	          0.00999999	
          0.03831647	         -2.59158587	          2.02934078	          3.68896403	          0.04646154	          0.87491602	         -0.00428122	         29.48389088	         -3.23067654	         -3.61246161	        -15.09798016	          3.94314442	          0.19582504	        -13.41131749	          1.09870525	         -8.41459419	        -10.79358051	         12.17864204	         24.24332886	        -12.63257681	         -3.99345924	         -2.66815368	          0.02558205	          0.05819887	          0.02345197	          0.09749996	          0.21054667	          0.06446106	          0.06884770	          0.08965417	          0.03215055	          0.00999999	          0.07859253	          0.01262042	          0.01042601	          0.44653315	          0.04838328	          0.00999999	          0.00999999	          0.02653063	          0.01000001	          0.04774818	          0.10041965	          0.01747613	          0.01000001	          0.01000000	          0.00999999	          0.14893690	          0.20901922	          0.00999999	
